# xmcd
#
# Track frame offsets:
#	182
#	14720
#	29132
#	42960
#
# Disc length: 900 seconds
#
# Revision: 2
# Processed by: cddbd v1.5.2PL0 Copyright (c) Steve Scherf et al.
# Submitted via: EasyCDDAExtractor 10.2.0.1
#
DISCID=33038204
DTITLE=Ruben Gomez - Siempre manana (tomorrow forever) CDM
DYEAR=2000
DGENRE=Pop
TTITLE0=Siempre manana (tomorrow forever) (English Version)
TTITLE1=Siempre manana (tomorrow forever) (Spanish Version)
TTITLE2=Septiembre
TTITLE3=Siempre manana (tomorrow forever) (Live for tomorrow Remix)
EXTD=
EXTT0=
EXTT1=
EXTT2=
EXTT3=
PLAYORDER=
